<svg xmlns="http://www.w3.org/2000/svg" viewBox="0 0 430 420" width="420" height="420"><ellipse cx="220" cy="392" rx="96" ry="14" fill="#1E5B47" opacity=".12"/><g fill="#1E5B47"><circle cx="6" cy="404" r="8"/><circle cx="28" cy="398" r="8.5"/><circle cx="50" cy="392" r="9"/><circle cx="72" cy="385" r="9.5"/><circle cx="94" cy="378" r="10"/><circle cx="116" cy="371" r="10.5"/></g><path d="M6 404 L124 368" stroke="#1E5B47" stroke-width="7" stroke-linecap="round"/><ellipse cx="184" cy="372" rx="26" ry="14" fill="#1E5B47"/><ellipse cx="256" cy="372" rx="26" ry="14" fill="#1E5B47"/><path d="M100 286 Q74 312 82 344" fill="none" stroke="#1E5B47" stroke-width="16" stroke-linecap="round"/><circle cx="82" cy="344" r="13" fill="#A9C9B8" stroke="#1E5B47" stroke-width="7"/><path d="M350 262 Q388 258 408 238" fill="none" stroke="#1E5B47" stroke-width="16" stroke-linecap="round"/><circle cx="412" cy="234" r="13" fill="#A9C9B8" stroke="#1E5B47" stroke-width="7"/><path d="M220 92 Q218 70 226 56" fill="none" stroke="#1E5B47" stroke-width="7" stroke-linecap="round"/><path d="M226 58 Q250 34 276 46 Q256 74 226 58 Z" fill="#3E8E6B" stroke="#1E5B47" stroke-width="5"/><path d="M222 66 Q200 46 178 56 Q194 80 222 66 Z" fill="#3E8E6B" stroke="#1E5B47" stroke-width="5"/><circle cx="220" cy="232" r="140" fill="#A9C9B8" stroke="#1E5B47" stroke-width="10"/><path d="M120 170 Q150 112 214 100" fill="none" stroke="#C9DED2" stroke-width="16" stroke-linecap="round" opacity=".9"/><circle cx="110" cy="200" r="7" fill="#C9DED2"/><ellipse cx="152" cy="252" rx="20" ry="12" fill="#E9A39A" opacity=".55"/><ellipse cx="288" cy="252" rx="20" ry="12" fill="#E9A39A" opacity=".55"/><ellipse cx="186" cy="212" rx="15" ry="21" fill="#1E5B47"/><ellipse cx="266" cy="212" rx="15" ry="21" fill="#1E5B47"/><circle cx="191" cy="203" r="5.5" fill="#fff"/><circle cx="271" cy="203" r="5.5" fill="#fff"/><circle cx="182" cy="221" r="2.5" fill="#fff" opacity=".7"/><circle cx="262" cy="221" r="2.5" fill="#fff" opacity=".7"/><path d="M194 264 Q220 256 246 264 Q242 284 220 286 Q198 284 194 264 Z" fill="#1E5B47"/></svg>